<svg xmlns="http://www.w3.org/2000/svg" width="90" height="63.55" viewBox="0 0 90 63.55">
    <g data-name="Group 17431" style="isolation:isolate">
        <path data-name="Path 17193" d="M12.773 0a4.89 4.89 0 0 1-2.325 6.529L5.343 8.954 44.94 27.93 84.654 8.951l-5.083-2.419A4.895 4.895 0 0 1 77.253 0l10.136 4.822a4.566 4.566 0 0 1-.006 8.255L46.915 32.42a4.589 4.589 0 0 1-3.938.007L2.6 13.077a4.565 4.565 0 0 1 .013-8.252L12.776 0z" transform="translate(0 30.683)" style="fill:#3da3c1"/>
        <path data-name="Path 17194" d="M12.773 0a4.89 4.89 0 0 1-2.325 6.529L5.343 8.954 44.94 27.93 84.654 8.951l-5.083-2.419A4.9 4.9 0 0 1 77.253 0l10.136 4.822a4.566 4.566 0 0 1-.006 8.255L46.915 32.42a4.589 4.589 0 0 1-3.938.007L2.6 13.077a4.565 4.565 0 0 1 .013-8.252L12.776 0z" style="fill:#3da3c1"/>
    </g>
</svg>
