<svg xmlns="http://www.w3.org/2000/svg" width="530.9" height="109.044" viewBox="0 0 530.9 109.044">
    <g data-name="Group 17530" transform="translate(-500.1 -1597.702)">
        <path data-name="Line 3222" transform="translate(601.241 1651.725)" style="stroke-width:3px;stroke:#3ea3c1;fill:none;stroke-linecap:round;stroke-linejoin:round" d="M0 0h428.259"/>
        <circle data-name="Ellipse 50" cx="45.428" cy="45.428" r="45.428" transform="translate(509.195 1606.797)" style="stroke-width:2.77px;stroke:#3ea3c1;fill:none;stroke-linecap:round;stroke-linejoin:round"/>
        <path data-name="Path 84176" d="M547.534 1599.153a53.606 53.606 0 0 1 59.421 41.722" style="stroke:#00222a;stroke-width:1.971px;fill:none;stroke-linecap:round;stroke-linejoin:round"/>
        <path data-name="Path 84177" d="M510.23 1682.158a53.675 53.675 0 0 1-7.632-42.617" style="stroke:#00222a;stroke-width:1.971px;fill:none;stroke-linecap:round;stroke-linejoin:round"/>
        <path data-name="Path 84178" d="M607.072 1663.014a53.546 53.546 0 0 1-90.323 27.049" style="stroke:#00222a;stroke-width:1.971px;fill:none;stroke-linecap:round;stroke-linejoin:round"/>
        <g data-name="Group 17529">
            <path data-name="Path 84179" d="m578.652 1654.792-11.289-6.518v-1.852a.967.967 0 1 0-1.934 0v1.839l-3.677 2.123v-2.527a4.55 4.55 0 0 0-3.2-4.34 5.319 5.319 0 1 0-7.849 0 4.55 4.55 0 0 0-3.2 4.34v2.526l-3.676-2.122v-12.477l10.8-6.238 10.806 6.238v11.679a.967.967 0 1 0 1.934 0v-12.237a.968.968 0 0 0-.483-.838l-11.773-6.8a.966.966 0 0 0-.967 0l-11.773 6.8a.969.969 0 0 0-.484.838v13.048l-11.288 6.518a.966.966 0 0 0-.484.838v13.594a.966.966 0 0 0 .484.837l11.772 6.8a.964.964 0 0 0 .967 0l11.289-6.518 11.289 6.518a.966.966 0 0 0 .968 0l11.772-6.8a.968.968 0 0 0 .484-.837v-13.594a.968.968 0 0 0-.484-.838zm-24.029-18.245a3.385 3.385 0 1 1-3.384 3.384 3.389 3.389 0 0 1 3.384-3.384zm-5.194 11.31a2.61 2.61 0 0 1 2.607-2.606h5.174a2.61 2.61 0 0 1 2.608 2.606v3.643l-5.2 3-5.194-3zm-17.384 8.331 10.806-6.238 10.8 6.238v12.477l-3.676 2.123v-2.527a4.55 4.55 0 0 0-3.233-4.348 5.319 5.319 0 1 0-7.792 0 4.549 4.549 0 0 0-3.233 4.348v2.527l-3.677-2.123zm10.806 7.494a3.385 3.385 0 1 1 3.384-3.385 3.388 3.388 0 0 1-3.384 3.385zm0 11.221-5.2-3v-3.644a2.61 2.61 0 0 1 2.608-2.606h5.174a2.61 2.61 0 0 1 2.607 2.606v3.644zm23.545 0-5.194-3v-3.644a2.609 2.609 0 0 1 2.607-2.606h5.174a2.609 2.609 0 0 1 2.607 2.606v3.644zm0-11.221a3.385 3.385 0 1 1 3.384-3.385 3.388 3.388 0 0 1-3.38 3.385zm10.8 4.983-3.676 2.122v-2.526a4.549 4.549 0 0 0-3.233-4.348 5.319 5.319 0 1 0-7.792 0 4.549 4.549 0 0 0-3.233 4.348v2.526l-3.676-2.122v-12.477l10.8-6.238 10.8 6.238z"/>
            <circle data-name="Ellipse 51" cx=".967" cy=".967" r=".967" transform="translate(565.428 1641.055)"/>
        </g>
    </g>
</svg>
