<svg xmlns="http://www.w3.org/2000/svg" width="587.979" height="109.045" viewBox="0 0 587.979 109.045">
    <g data-name="Group 19509" transform="translate(-887.5 -2755.341)">
        <circle data-name="Ellipse 49" cx="45.428" cy="45.428" r="45.428" transform="translate(1375.528 2764.436)" style="stroke-width:2.77px;stroke:#3ea3c1;fill:none;stroke-linecap:round;stroke-linejoin:round"/>
        <path data-name="Path 84172" d="M1429.546 2103.808a54.168 54.168 0 0 0-7.09-.465 53.556 53.556 0 0 0-52.331 42.187" transform="translate(-1.5 652.984)" style="stroke:#00222a;stroke-width:1.971px;fill:none;stroke-linecap:round;stroke-linejoin:round"/>
        <path data-name="Path 84173" d="M1466.85 2186.813a53.688 53.688 0 0 0 7.632-42.617" transform="translate(-1.5 652.984)" style="stroke:#00222a;stroke-width:1.971px;fill:none;stroke-linecap:round;stroke-linejoin:round"/>
        <path data-name="Path 84174" d="M1370.007 2167.67a53.545 53.545 0 0 0 90.323 27.048" transform="translate(-1.5 652.984)" style="stroke:#00222a;stroke-width:1.971px;fill:none;stroke-linecap:round;stroke-linejoin:round"/>
        <path data-name="Line 3221" transform="translate(889 2809.364)" style="stroke-width:3px;stroke:#3ea3c1;fill:none;stroke-linecap:round;stroke-linejoin:round" d="M485.339 0H0"/>
        <path data-name="Path 85019" d="M1424.623 1160.169v-16.543l7.85 3.968a4.327 4.327 0 0 0-1.912-5.822l-3.286-1.66 10.661-5.255a4.351 4.351 0 0 0-5.821-1.964l-7.492 3.693v-1.341a2.858 2.858 0 1 0-4.345.008v1.388l-8.081-3.826a4.351 4.351 0 0 0-5.789 2.056l11.158 5.281-3.212 1.623a4.326 4.326 0 0 0-1.915 5.822l7.836-3.958v16.519l-17.528-8.886v.023a7.88 7.88 0 0 0 4.321 7.027l10.571 5.359-7.229 3.609a4.352 4.352 0 0 0 5.832 1.926l6.2-3.1 6.074 3.1a4.354 4.354 0 0 0 5.847-1.887l-7.127-3.634 10.578-5.319a7.881 7.881 0 0 0 4.344-7.039z" transform="translate(.095 1660.045)" style="fill:#00222a"/>
    </g>
</svg>
