<svg xmlns="http://www.w3.org/2000/svg" width="587.979" height="109.045" viewBox="0 0 587.979 109.045">
    <g data-name="Group 19508" transform="translate(-887.5 -2755.341)">
        <g data-name="Group 17523">
            <g data-name="Group 17522">
                <g data-name="Group 17521">
                    <g data-name="Group 17520">
                        <path data-name="Path 84157" d="M1443.516 2153.791a3.2 3.2 0 0 1 1.519-4.266l3.336-1.585-25.876-12.4-25.953 12.4 3.321 1.581a3.2 3.2 0 0 1 1.515 4.268l-6.624-3.151a2.984 2.984 0 0 1 0-5.395l26.446-12.64a3 3 0 0 1 2.573 0l26.384 12.644a2.984 2.984 0 0 1-.008 5.393l-6.639 3.153zm5.26-5.656zm-52.637 0z" style="fill:#002e36" transform="translate(-1.5 652.984)"/>
                        <path data-name="Path 84158" d="M1423.4 2182.19a2.215 2.215 0 0 1-1.9 0l-26.835-12.709a2.982 2.982 0 0 1-.07-5.361l6.647-3.359a3.2 3.2 0 0 1-1.413 4.3l-3.391 1.714 26.01 12.318 26.011-12.318-3.391-1.714a3.2 3.2 0 0 1-1.413-4.3l6.555 3.312a3.083 3.083 0 0 1 1.726 2.461 2.969 2.969 0 0 1-1.7 2.949l-26.837 12.709z" style="fill:#002e36" transform="translate(-1.5 652.984)"/>
                        <path data-name="Path 84159" d="M1424.059 2164.952v-12.225l5.8 2.932a3.2 3.2 0 0 0-1.413-4.3l-2.429-1.226 7.879-3.884a3.215 3.215 0 0 0-4.3-1.451l-5.537 2.729v-.991a2.112 2.112 0 1 0-3.211.006v1.026l-5.972-2.827a3.214 3.214 0 0 0-4.278 1.519l8.246 3.9-2.374 1.2a3.2 3.2 0 0 0-1.415 4.3l5.791-2.925v12.208l-12.953-6.567v.017a5.824 5.824 0 0 0 3.193 5.193l7.812 3.96-5.342 2.667a3.216 3.216 0 0 0 4.309 1.424l4.585-2.295 4.489 2.29a3.218 3.218 0 0 0 4.321-1.394l-5.267-2.686 7.817-3.93a5.826 5.826 0 0 0 3.21-5.2z" style="fill:#3da3c1" transform="translate(-1.5 652.984)"/>
                    </g>
                </g>
            </g>
        </g>
        <circle data-name="Ellipse 49" cx="45.428" cy="45.428" r="45.428" transform="translate(1375.528 2764.436)" style="stroke-width:2.77px;stroke:#3ea3c1;fill:none;stroke-linecap:round;stroke-linejoin:round"/>
        <path data-name="Path 84172" d="M1429.546 2103.808a54.168 54.168 0 0 0-7.09-.465 53.556 53.556 0 0 0-52.331 42.187" transform="translate(-1.5 652.984)" style="stroke:#00222a;stroke-width:1.971px;fill:none;stroke-linecap:round;stroke-linejoin:round"/>
        <path data-name="Path 84173" d="M1466.85 2186.813a53.688 53.688 0 0 0 7.632-42.617" transform="translate(-1.5 652.984)" style="stroke:#00222a;stroke-width:1.971px;fill:none;stroke-linecap:round;stroke-linejoin:round"/>
        <path data-name="Path 84174" d="M1370.007 2167.67a53.545 53.545 0 0 0 90.323 27.048" transform="translate(-1.5 652.984)" style="stroke:#00222a;stroke-width:1.971px;fill:none;stroke-linecap:round;stroke-linejoin:round"/>
        <path data-name="Line 3221" transform="translate(889 2809.364)" style="stroke-width:3px;stroke:#3ea3c1;fill:none;stroke-linecap:round;stroke-linejoin:round" d="M485.339 0H0"/>
    </g>
</svg>
