<svg xmlns="http://www.w3.org/2000/svg" width="530.9" height="109.044" viewBox="0 0 530.9 109.044">
    <g data-name="Group 19510" transform="translate(-500.1 -1597.702)">
        <path data-name="Line 3222" transform="translate(601.241 1651.725)" style="stroke-width:3px;stroke:#3ea3c1;fill:none;stroke-linecap:round;stroke-linejoin:round" d="M0 0h428.259"/>
        <circle data-name="Ellipse 50" cx="45.428" cy="45.428" r="45.428" transform="translate(509.195 1606.797)" style="stroke-width:2.77px;stroke:#3ea3c1;fill:none;stroke-linecap:round;stroke-linejoin:round"/>
        <path data-name="Path 84176" d="M547.534 1599.153a53.606 53.606 0 0 1 59.421 41.722" style="stroke:#00222a;stroke-width:1.971px;fill:none;stroke-linecap:round;stroke-linejoin:round"/>
        <path data-name="Path 84177" d="M510.23 1682.158a53.675 53.675 0 0 1-7.632-42.617" style="stroke:#00222a;stroke-width:1.971px;fill:none;stroke-linecap:round;stroke-linejoin:round"/>
        <path data-name="Path 84178" d="M607.072 1663.014a53.546 53.546 0 0 1-90.323 27.049" style="stroke:#00222a;stroke-width:1.971px;fill:none;stroke-linecap:round;stroke-linejoin:round"/>
        <g data-name="Group 19511">
            <g data-name="Group 17533">
                <path data-name="Path 84183" d="M575.787 656.685a7.468 7.468 0 0 0-4.485 1.49l-2.6-2.595a1.084 1.084 0 0 0-1.533 1.533l2.595 2.6a7.507 7.507 0 1 0 6.018-3.023zm0 12.849a5.34 5.34 0 1 1 5.341-5.341 5.347 5.347 0 0 1-5.341 5.341z" style="fill:#00222a" transform="translate(-.308 1008.387)"/>
                <path data-name="Path 84184" d="M534.075 629.99a7.473 7.473 0 0 0 4.485-1.49l2.6 2.595a1.084 1.084 0 0 0 1.534-1.533l-2.6-2.6a7.506 7.506 0 1 0-6.019 3.024zm0-12.849a5.341 5.341 0 1 1-5.34 5.34 5.347 5.347 0 0 1 5.34-5.34z" style="fill:#00222a" transform="translate(-.308 1008.387)"/>
                <path data-name="Path 84185" d="M567.941 631.412a1.083 1.083 0 0 0 .766-.317l2.6-2.595a7.52 7.52 0 1 0-1.533-1.534l-2.595 2.595a1.085 1.085 0 0 0 .767 1.851zm7.846-14.271a5.341 5.341 0 1 1-5.34 5.34 5.347 5.347 0 0 1 5.34-5.34z" style="fill:#00222a" transform="translate(-.308 1008.387)"/>
                <path data-name="Path 84186" d="m541.155 655.58-2.6 2.595a7.51 7.51 0 1 0 1.534 1.533l2.6-2.6a1.084 1.084 0 0 0-1.534-1.533zm-7.08 13.954a5.34 5.34 0 1 1 5.341-5.341 5.346 5.346 0 0 1-5.341 5.341z" style="fill:#00222a" transform="translate(-.308 1008.387)"/>
                <g data-name="Group 17532">
                    <path data-name="Path 84187" d="M550.409 648.362h-3.015a2.01 2.01 0 0 1-2.01-2.01V636.3a2.01 2.01 0 0 1 2.01-2.01h3.015a2.01 2.01 0 0 1 2.01 2.01v2.351l-.2.262a4.018 4.018 0 0 0 0 4.823l.2.262v2.351a2.01 2.01 0 0 1-2.01 2.013zm-3.015-12.062v10.049h3.015v-1.688a6.03 6.03 0 0 1 0-6.673V636.3z" style="fill:#3ea3c1" transform="translate(-.308 1008.387)"/>
                    <path data-name="Path 84188" d="M563.473 648.362h-3.015a2.009 2.009 0 0 1-2.009-2.01V644l.2-.262a4.019 4.019 0 0 0 0-4.823l-.2-.262V636.3a2.009 2.009 0 0 1 2.009-2.01h3.015a2.01 2.01 0 0 1 2.01 2.01v10.049a2.01 2.01 0 0 1-2.01 2.013zm-3.015-3.7v1.688h3.015V636.3h-3.015v1.688a6.03 6.03 0 0 1 0 6.676z" style="fill:#3ea3c1" transform="translate(-.308 1008.387)"/>
                    <path data-name="Path 84189" d="M555.434 647.357a6.03 6.03 0 1 1 3.618-10.853 6.03 6.03 0 0 1-3.618 10.853zm0-10.049a4.02 4.02 0 1 0 3.216 1.608 4.018 4.018 0 0 0-3.216-1.608z" style="fill:#3ea3c1" transform="translate(-.308 1008.387)"/>
                    <path data-name="Path 84190" d="M562.468 653.387H548.4v-7.035h2.01v-5.025l1.809 2.4a4.02 4.02 0 0 0 6.432 0l1.808-2.4v5.025h2.01zm-12.059-2.01h10.049v-3.015a2.009 2.009 0 0 1-2.009-1.819 6.181 6.181 0 0 1-6.03 0 2.01 2.01 0 0 1-2.01 1.819z" style="fill:#3ea3c1" transform="translate(-.308 1008.387)"/>
                    <path data-name="Path 84191" d="M560.458 657.406h-10.049a2.009 2.009 0 0 1-2.01-2.009v-4.02h14.069v4.02a2.009 2.009 0 0 1-2.01 2.009zm-10.049-4.019v2.01h10.049v-2.01z" style="fill:#3ea3c1" transform="translate(-.308 1008.387)"/>
                    <path data-name="Path 84192" d="M545.384 651.377h4.02v2.01h-4.02z" style="fill:#3ea3c1" transform="translate(-.308 1008.387)"/>
                    <path data-name="Path 84193" d="M544.379 649.367h2.01v6.03h-2.01z" style="fill:#3ea3c1" transform="translate(-.308 1008.387)"/>
                    <path data-name="Path 84194" d="m560.458 641.327-1.808-2.411a4.02 4.02 0 0 0-6.432 0l-1.809 2.411V636.3h-3.5l2.814-7.035h11.416l2.814 7.035h-3.5zm-5.024-6.029a6.117 6.117 0 0 1 3.015.814 2.009 2.009 0 0 1 2.009-1.819h.523l-1.206-3.015h-8.683l-1.2 3.015h.522a2.01 2.01 0 0 1 2.01 1.819 6.114 6.114 0 0 1 3.01-.812z" style="fill:#3ea3c1" transform="translate(-.308 1008.387)"/>
                </g>
            </g>
        </g>
    </g>
</svg>
