<svg data-name="Component 79 – 70" xmlns="http://www.w3.org/2000/svg" width="17.482" height="17.482" viewBox="0 0 17.482 17.482">
    <defs>
        <clipPath id="4r25vayiza">
            <path data-name="Rectangle 2168" style="stroke:#000;stroke-width:.5px" d="M0 0h17.482v17.482H0z"/>
        </clipPath>
    </defs>
    <g data-name="Group 16779" style="clip-path:url(#4r25vayiza)">
        <path data-name="Path 60089" d="M284.815 250a1.482 1.482 0 1 1-1.482 1.482 1.482 1.482 0 0 1 1.482-1.482" transform="translate(-277.31 -244.468)" style="stroke:#000;stroke-width:.5px"/>
        <path data-name="Path 60090" d="M122.037 83.185a5.186 5.186 0 0 0-5.368 5v.189a.741.741 0 1 0 1.482 0A3.667 3.667 0 0 1 119.3 85.7a3.593 3.593 0 0 1 2.7-1.037 3.778 3.778 0 0 1 3.556 3.556 3.667 3.667 0 0 1-2.371 3.593 3.371 3.371 0 0 0-2.074 3.112 1.556 1.556 0 0 1-1.445 1.593 1.63 1.63 0 0 1-1.074-.407 1.482 1.482 0 0 1-.445-1.074.741.741 0 0 0-1.482 0 2.964 2.964 0 0 0 .889 2.111 2.926 2.926 0 0 0 2.076.853h.074a3.038 3.038 0 0 0 2.889-3.075 1.778 1.778 0 0 1 1.148-1.7 5.2 5.2 0 0 0-1.7-10.039" transform="translate(-114.347 -81.357)" style="stroke:#000;stroke-width:.5px"/>
        <path data-name="Path 60091" d="M551.008 49.97a.7.7 0 0 0-.994-.043q-.022.02-.043.043a.7.7 0 0 0-.043.994q.02.022.043.043a6.446 6.446 0 0 1 .222 9.113q-.108.114-.222.222a.7.7 0 0 0-.043.994q.02.022.043.043a.7.7 0 0 0 .994.043.872.872 0 0 0 .043-.043 7.89 7.89 0 0 0 .254-11.156q-.125-.129-.254-.253z" transform="translate(-537.798 -48.661)" style="stroke:#000;stroke-width:.5px"/>
    </g>
</svg>
