<svg xmlns="http://www.w3.org/2000/svg" width="25.553" height="25.553" viewBox="0 0 25.553 25.553">
    <g data-name="Group 19811" transform="translate(-185.74 -5716.886)">
        <circle data-name="Ellipse 41" cx="12.776" cy="12.776" r="12.776" transform="translate(185.74 5716.886)" style="fill:#fff"/>
        <path data-name="Instagram" d="M9.265 13.2H3.931A3.936 3.936 0 0 1 0 9.265V3.931A3.936 3.936 0 0 1 3.931 0h5.334A3.936 3.936 0 0 1 13.2 3.931v5.334A3.936 3.936 0 0 1 9.265 13.2zM3.931 1.327a2.607 2.607 0 0 0-2.6 2.6v5.338a2.607 2.607 0 0 0 2.6 2.6h5.334a2.606 2.606 0 0 0 2.6-2.6V3.931a2.607 2.607 0 0 0-2.6-2.6zM6.6 10.011A3.413 3.413 0 1 1 10.011 6.6 3.417 3.417 0 0 1 6.6 10.011zm0-5.5A2.085 2.085 0 1 0 8.684 6.6 2.088 2.088 0 0 0 6.6 4.513zm3.419-.484a.818.818 0 1 1 .818-.818.819.819 0 0 1-.819.82z" transform="translate(192.128 5722.476)" style="fill:#265a65"/>
    </g>
</svg>
