<svg xmlns="http://www.w3.org/2000/svg" width="26.002" height="26" viewBox="0 0 26.002 26">
    <g data-name="Group 2875">
        <path data-name="Path 17159" d="M54.434 166.267h1.726a1.361 1.361 0 0 0 .22.046 8.934 8.934 0 0 1 1.331.174 12.737 12.737 0 0 1 7.841 4.813 13 13 0 0 1-12.022 20.845 12.494 12.494 0 0 1-6.791-3.1 12.8 12.8 0 0 1-4.292-7.811c-.058-.366-.1-.734-.151-1.1v-1.625c.015-.091.038-.181.045-.273a12.454 12.454 0 0 1 .7-3.286 12.982 12.982 0 0 1 4.213-5.879 12.759 12.759 0 0 1 5.783-2.6c.463-.091.934-.107 1.397-.204zM62.9 173.6c-.111.1-.2.174-.285.253-.052.048-.109.1-.178.066-.275-.138-.4.054-.527.235a1.317 1.317 0 0 0-.224.305c-.175.539-.6.514-1.035.487H60.6a.422.422 0 0 1-.464-.419c-.016-.1-.031-.2-.042-.3a.414.414 0 0 1 .319-.455 1.478 1.478 0 0 1 .82.014c.094.022.172.017.17-.108 0-.07.116-.176-.033-.2-.308-.057-.108-.26-.12-.4-.014-.158.085-.22.239-.218a.671.671 0 0 0 .658-.416c.162-.342.468-.336.777-.317.092.006.184.024.276.033.041 0 .111 0 .108-.036a1.16 1.16 0 0 0-.071-.444c-.058-.111-.189 0-.265.04-.172.093-.256.052-.306-.129-.028-.1-.054-.205-.191-.24-.247-.063-.283-.236-.122-.435a1.159 1.159 0 0 1 .525-.287c.3-.125.326-.278.085-.479a12.082 12.082 0 0 0-2.1-1.415 11.749 11.749 0 0 0-7.489-1.236 11.576 11.576 0 0 0-4.291 1.6c-.243.149-.476.315-.714.473a3.839 3.839 0 0 0 .509.054c.156.023.28.142.444.172s.355 0 .4.237c.009.05.069.04.109.04h.659c-.154-.4-.515-.146-.734-.279.131-.262.1-.311-.192-.319a.744.744 0 0 1-.363-.039c.206-.155.382-.3.571-.425a.822.822 0 0 1 .923.159.527.527 0 0 0 .851.066c.133-.136.234-.133.359.006-.214.24-.407.5-.795.426-.064-.013-.206-.044-.166.1.029.107-.053.26.162.313.438.107.734-.3 1.143-.277.07 0 .056-.11.064-.174a.1.1 0 0 0-.075-.113c-.064-.024-.2.038-.164-.117.027-.123.091-.224.23-.234a4.193 4.193 0 0 1 .857.028c-.135.125-.228.219-.329.3a.234.234 0 0 0-.036.321c.076.152.24.115.364.106.141-.011.08-.152.066-.224a.345.345 0 0 1 .267-.437 1.547 1.547 0 0 1 1.268-.037 5.6 5.6 0 0 0 .579.255c.165.061.251.152.216.334-.026.139.022.225.174.238.174.015.165.089.1.228a.256.256 0 0 1-.3.156c-.2-.024-.347.014-.388.246-.011.062-.03.157-.148.127-.336-.084-.673-.163-1.067-.258l.455-.246.423-.23a.911.911 0 0 0-1.255-.032.443.443 0 0 1-.372.176c-.171-.013-.154.077-.1.184.021.038.106.033.083.087-.091.093-.256.019-.288.148-.038.152-.148.12-.238.121-.107 0-.1-.109-.105-.173-.007-.17-.082-.15-.209-.117a6.3 6.3 0 0 0-1.3.671.12.12 0 0 0-.07.142.608.608 0 0 0 .5.553c.156.03.359-.017.459.1s.019.309.036.468c.006.059-.036.15.071.159a.207.207 0 0 0 .22-.094 2.879 2.879 0 0 0 .143-.3.356.356 0 0 1 .253-.22c.455-.141.454-.146.454-.63v-.178c-.009-.1.053-.161.117-.234.236-.271.5-.111.749-.06.351.07.362.08.309.441-.027.184.069.2.18.162a2.22 2.22 0 0 0 .438-.193c.173-.1.242-.065.221.138a.563.563 0 0 0 .372.681c.081.028.1.1.1.184 0 .187-.01.354-.249.39-.069.01-.166.015-.174.115-.01.116.1.117.172.154a1.491 1.491 0 0 0 .23.1c.144.049.135.163.111.271-.031.14-.145.084-.226.065-.131-.031-.258-.079-.386-.12-.265-.085-.29-.164-.1-.369.069-.076.086-.161.024-.223s-.126-.057-.2.043a.448.448 0 0 1-.636-.009c-.1-.121-.228-.093-.351-.084a.159.159 0 0 0-.162.162.145.145 0 0 0 .138.174c.079.015.157.042.254.07-.092.125-.135.289-.335.127-.085-.069-.176 0-.267.063-.255.183-.364.515-.678.637a3.373 3.373 0 0 0-1.111.943.266.266 0 0 0-.082.206.307.307 0 0 1-.189.3c-.117.067-.225.15-.34.221-.4.248-.724.535-.574 1.078.012.043.03.1-.027.136-.076.044-.491-.2-.474-.3.068-.354-.152-.332-.386-.324-.279.01-.559 0-.838.005a.846.846 0 0 0-.249.032 1.494 1.494 0 0 0-1.039 1.16.51.51 0 0 0 .471.7.571.571 0 0 0 .451-.107c.168-.128.349-.238.526-.354s.229-.1.258.124a.346.346 0 0 1-.057.188 1.414 1.414 0 0 0-.172.382c.21.086.513 0 .621.167a1.236 1.236 0 0 1 .078.667c-.01.275.078.363.363.438a.805.805 0 0 0 1.019-.373c.06-.1.126-.256.282-.21.25.073.551 0 .742.248a.578.578 0 0 0 .883.044c.053-.054.088-.009.133 0a.77.77 0 0 1 .485.485.537.537 0 0 0 .6.341c.376-.026.581.168.651.555a1.1 1.1 0 0 1 .026.3c-.019.18.074.242.224.306a2.483 2.483 0 0 0 1.254.238.524.524 0 0 1 .632.353.343.343 0 0 0 .238.206c.338.112.387.275.183.58a1.4 1.4 0 0 1-.125.16 1.208 1.208 0 0 0-.386.9c.011.2-.068.4-.058.6a.7.7 0 0 1-.354.618c-.206.163-.422.079-.633.087a.347.347 0 0 0-.3.166.65.65 0 0 0-.019.65.523.523 0 0 1-.12.572 2.647 2.647 0 0 0-.538.7 1.479 1.479 0 0 1-.878.739 2.183 2.183 0 0 1-.444.094c-.073.018-.124.052-.124.135s.06.084.116.106c.234.089.247.181.073.374-.061.068-.2.107-.155.228a.279.279 0 0 0 .3.181c.124-.01.217.043.162.173a.7.7 0 0 0 .333.986c.108.063.035.275-.092.276-.312 0-.648.079-.885-.23-.066-.086-.172-.139-.244-.221a1.977 1.977 0 0 1-.7-1.82.342.342 0 0 0-.056-.359.9.9 0 0 1-.235-1.05 1.463 1.463 0 0 0 .044-.223c.014-.075 0-.14-.087-.151-.156-.018-.15-.127-.15-.242v-1.65c0-.1.013-.2-.1-.268a2.342 2.342 0 0 0-.867-.5c-.064-.01-.145-.032-.147-.117-.009-.409-.324-.642-.55-.912a1.2 1.2 0 0 1-.34-1.035c.059-.4.127-.709.512-.887a.225.225 0 0 0 .159-.178c.063-.518-.082-.7-.608-.7a.672.672 0 0 1-.623-.3 1.46 1.46 0 0 0-1.18-.718c-.1-.005-.136-.049-.122-.147.01-.07.055-.167-.06-.185s-.231-.1-.311.041c-.035.061-.074.057-.124.044-.485-.124-1.037-.124-1.262-.719-.041-.109-.1-.193-.012-.295.1-.12.061-.221-.02-.335a2.394 2.394 0 0 1-.645-1.369c0-.14-.094-.141-.191-.126-.127.019-.061.113-.062.179a1.8 1.8 0 0 0 .444 1.079c.1.133.111.324-.005.379a.341.341 0 0 1-.419-.131 1.836 1.836 0 0 1-.42-1.363c.008-.041 0-.085 0-.127a.19.19 0 0 0-.143-.233.43.43 0 0 1-.347-.561c.007-.036.036-.1-.037-.123a11.856 11.856 0 0 0 5.912 15.264 11.55 11.55 0 0 0 9.659.25 11.307 11.307 0 0 0 4.648-3.485c-.334.068-.376-.092-.362-.353.011-.193.08-.415-.088-.581a1.255 1.255 0 0 1-.36-1.131.512.512 0 0 0-.2-.511.453.453 0 0 1-.106-.637 1.09 1.09 0 0 0-.062-1.511c-.043-.051-.059-.124-.1-.175a1.32 1.32 0 0 1-.226-1.224c.063-.263-.044-.325-.276-.329a.756.756 0 0 1-.529-.122.6.6 0 0 0-.884-.024.4.4 0 0 1-.263.059 2.985 2.985 0 0 0-.68.029c-.381.106-.51.1-.767-.19a4.509 4.509 0 0 0-.44-.491 1.368 1.368 0 0 1-.481-1.374c.018-.11.016-.2.135-.269.142-.086.131-.372 0-.38-.223-.014-.171-.192-.221-.31-.06-.139.061-.174.137-.23.32-.235.638-.475.968-.7a.356.356 0 0 0 .18-.354c-.008-.149-.074-.364.027-.439a1.217 1.217 0 0 1 .782-.364c.219.014.468.088.65-.016a2.922 2.922 0 0 1 1.324-.26c.411-.028.424-.026.408.4-.008.2.07.272.253.319a2.946 2.946 0 0 1 1 .324c.125.086.221.034.212-.144 0-.075-.044-.2.075-.209.242-.011.49-.129.724.078.14.124.274.291.484.3.245.011.491 0 .736 0 .164 0 .183-.069.128-.208a4.381 4.381 0 0 1-.194-.575c-.044-.184-.137-.255-.32-.219a.566.566 0 0 1-.614-.239.649.649 0 0 1-.1-.405c-.008-.2-.075-.231-.245-.128a.339.339 0 0 0-.141.223 2.223 2.223 0 0 1-.148.486c-.25-.255-.539-.457-.474-.859a.145.145 0 0 0-.062-.132c-.165-.145-.32-.3-.5-.434a.637.637 0 0 0-.511-.029c-.052.009.089.4.184.466.062.043.132.075.2.114.207.121.469.163.35.548-.063.206-.146.29-.311.312a.317.317 0 0 1-.388-.276c.107.008.191.011.273.022a.158.158 0 0 0 .179-.11c.028-.075-.054-.1-.1-.126-.187-.13-.374-.262-.569-.381a.525.525 0 0 1-.291-.412zm1.126-2.443h-.069a.511.511 0 0 1-.39.719c-.057.017-.11.052-.081.13a.127.127 0 0 0 .134.092c.2 0 .405.007.608 0 .184 0 .2-.183.282-.288s-.038-.148-.086-.206c-.129-.147-.266-.294-.399-.443zm-13.44 2.149a1.8 1.8 0 0 0 .232 0c.079-.012.2.055.216-.1a.261.261 0 0 0-.18-.276.927.927 0 0 0-.676.119.15.15 0 0 0-.079.145c0 .049.069.063.119.076a1.259 1.259 0 0 0 .368.039zm.1.145a.488.488 0 0 0-.65.442c-.007.1.041.133.11.171s.108 0 .144-.054c.133-.18.264-.363.4-.555zm-2.119-3a1.423 1.423 0 0 0 .227 0 .218.218 0 0 0 .193-.252c-.011-.135-.13-.061-.2-.08-.169-.047-.287.119-.453.106-.061 0-.047.076-.049.123s.015.1.08.1.135.007.206.007zm1.146 1.585c-.1.049-.3.038-.28.193.011.1.025.3.22.3.233 0 .282-.188.294-.362.015-.137-.133-.096-.229-.128zm1.231 2.25c.2 0 .322-.083.335-.291 0-.064 0-.109-.095-.1-.158.009-.426.195-.423.3.009.158.129.061.188.095zm-2.294-3.244c.107-.036.256.044.329-.106a.128.128 0 0 0-.011-.118c-.119-.092-.244-.016-.357.019-.093.029-.274 0-.255.133s.191.053.299.076zm3.114 2.987c.055-.017.162.051.179-.091.014-.123-.051-.164-.155-.181-.041-.007-.08-.03-.121-.033-.06-.005-.13-.093-.177-.007a.229.229 0 0 0 .019.218c.06.103.15.105.26.097zm-.628-.615c-.116-.035-.188.027-.163.186.011.069-.051.2.1.173.13-.022.273-.052.29-.228.019-.145-.091-.123-.221-.128zm14.793.485-.08.012v.389c0 .052-.025.132.064.137a.4.4 0 0 0 .22-.026c.055-.035-.008-.107-.03-.157-.048-.117-.11-.234-.169-.354z" transform="translate(-42.297 -166.267)" style="fill:#f0f4f8"/>
        <path data-name="Path 17160" d="M406.69 266.917a.955.955 0 0 1-.968.317c-.069-.04-.046-.106-.037-.157.019-.1-.02-.229.124-.276.064-.021.163.017.174-.1s-.068-.163-.149-.211c-.036-.022-.071-.046-.107-.067-.139-.078-.264-.165-.19-.355s.264-.2.426-.206c.111-.006.093.119.109.194a1.123 1.123 0 0 0 .618.861z" transform="translate(-387.036 -260.793)" style="fill:#f0f4f8"/>
        <path data-name="Path 17161" d="M393.585 276.272a.446.446 0 0 1-.016.1 1.238 1.238 0 0 1-.649.384c-.06 0-.121 0-.131-.082a.633.633 0 0 1 .249-.528.391.391 0 0 1 .447-.052.158.158 0 0 1 .1.178z" transform="translate(-374.952 -270.461)" style="fill:#f0f4f8"/>
        <path data-name="Path 17162" d="M270.351 304.759c-.107 0-.193-.054-.2-.169s.1-.082.168-.084c.1 0 .179 0 .222-.113s.131-.084.213-.059c.029.009.078.033.078.049 0 .1-.092.09-.15.129-.111.076-.126.282-.331.247z" transform="translate(-258.56 -297.29)" style="fill:#f0f4f8"/>
        <path data-name="Path 17163" d="M261.139 308.838c.006.114-.08.1-.153.106s-.106-.024-.1-.1.046-.176.136-.172a.135.135 0 0 1 .117.166z" transform="translate(-249.764 -301.427)" style="fill:#f0f4f8"/>
    </g>
</svg>
