<svg xmlns="http://www.w3.org/2000/svg" width="25.553" height="25.553" viewBox="0 0 25.553 25.553">
    <g data-name="Group 19810" transform="translate(-153 -5716.886)">
        <circle data-name="Ellipse 40" cx="12.776" cy="12.776" r="12.776" transform="translate(153 5716.886)" style="fill:#fff"/>
        <g data-name="Group 606">
            <g data-name="Group 601">
                <g data-name="Group 15919">
                    <path data-name="Linkedin" d="M9.471 11.943V8.065c0-.927-.014-2.117-1.285-2.117C6.9 5.948 6.7 6.958 6.7 8v3.947H4.231V3.966H6.6v1.093h.03a2.6 2.6 0 0 1 2.344-1.287c2.5 0 2.97 1.651 2.97 3.8v4.371zm-6.8 0H.193V3.966H2.67v7.977zm1.556-7.977zM0 1.439a1.437 1.437 0 1 1 1.437 1.438A1.439 1.439 0 0 1 0 1.439z" transform="translate(160.187 5723.273)" style="fill:#275b65"/>
                </g>
            </g>
        </g>
    </g>
</svg>
