<svg xmlns="http://www.w3.org/2000/svg" width="14.722" height="20.243" viewBox="0 0 14.722 20.243">
    <path d="M7.361 16.562A1.84 1.84 0 1 0 9.2 18.4a1.846 1.846 0 0 0-1.839-1.838zM1.84 0a1.84 1.84 0 1 0 1.84 1.84A1.846 1.846 0 0 0 1.84 0zm0 5.521a1.84 1.84 0 1 0 1.84 1.84 1.846 1.846 0 0 0-1.84-1.84zm0 5.521a1.84 1.84 0 1 0 1.84 1.84 1.846 1.846 0 0 0-1.84-1.841zM12.882 3.68a1.84 1.84 0 1 0-1.84-1.84 1.846 1.846 0 0 0 1.84 1.84zm-5.521 7.361a1.84 1.84 0 1 0 1.84 1.84 1.846 1.846 0 0 0-1.84-1.84zm5.521 0a1.84 1.84 0 1 0 1.84 1.84 1.846 1.846 0 0 0-1.84-1.84zm0-5.521a1.84 1.84 0 1 0 1.84 1.84 1.846 1.846 0 0 0-1.84-1.839zm-5.521 0a1.84 1.84 0 1 0 1.84 1.84 1.846 1.846 0 0 0-1.84-1.839zm0-5.521A1.84 1.84 0 1 0 9.2 1.84 1.846 1.846 0 0 0 7.361 0z"/>
</svg>
