<svg xmlns="http://www.w3.org/2000/svg" width="25.553" height="25.553" viewBox="0 0 25.553 25.553">
    <g data-name="Group 19812" transform="translate(-219.278 -5716.886)">
        <circle data-name="Ellipse 42" cx="12.776" cy="12.776" r="12.776" transform="translate(219.278 5716.886)" style="fill:#fff"/>
        <path data-name="Youtube" d="M7.662 11.919c-.04 0-4-.029-5.2-.162a2.94 2.94 0 0 0-.234-.04 2.148 2.148 0 0 1-1.457-.692 4.075 4.075 0 0 1-.608-1.68A27.132 27.132 0 0 1 0 6.61V5.336c0-1.363.157-2.749.159-2.763A3.706 3.706 0 0 1 .766.894a2.087 2.087 0 0 1 1.486-.7L2.3.19C4.414.029 7.63 0 7.662 0s3.249.029 5.363.19L13.1.2a1.951 1.951 0 0 1 1.46.7 4.075 4.075 0 0 1 .608 1.68c0 .014.159 1.4.159 2.763V6.61c0 1.336-.157 2.722-.159 2.736a4.077 4.077 0 0 1-.608 1.68 2.087 2.087 0 0 1-1.486.7h-.043c-2.121.191-5.337.193-5.369.193zm-1.85-8.7V9.1l5.02-2.871z" transform="translate(224.069 5723.274)" style="fill:#255a68"/>
    </g>
</svg>
